<mxfile host="Electron" modified="2024-11-05T08:52:50.644Z" agent="Mozilla/5.0 (Macintosh; Intel Mac OS X 10_15_7) AppleWebKit/537.36 (KHTML, like Gecko) draw.io/22.1.21 Chrome/120.0.6099.109 Electron/28.1.0 Safari/537.36" etag="yNI6ZY3eCmYhFzNS3QX7" version="22.1.21" type="device">
  <diagram name="Page-1" id="M_D5i99Mz3FH3aUHf5Ik">
    <mxGraphModel dx="954" dy="674" grid="0" gridSize="10" guides="1" tooltips="1" connect="1" arrows="1" fold="1" page="1" pageScale="1" pageWidth="827" pageHeight="1169" math="0" shadow="0">
      <root>
        <mxCell id="0" />
        <mxCell id="1" parent="0" />
        <mxCell id="o04J5xOrKGcNlXBaJA4S-1" value="AWS Cloud" style="sketch=0;outlineConnect=0;gradientColor=none;html=1;whiteSpace=wrap;fontSize=12;fontStyle=0;shape=mxgraph.aws4.group;grIcon=mxgraph.aws4.group_aws_cloud;strokeColor=default;fillColor=none;verticalAlign=top;align=left;spacingLeft=30;fontColor=#AAB7B8;dashed=0;" vertex="1" parent="1">
          <mxGeometry x="210" y="62" width="560" height="247" as="geometry" />
        </mxCell>
        <mxCell id="o04J5xOrKGcNlXBaJA4S-2" value="" style="verticalLabelPosition=bottom;html=1;verticalAlign=top;align=center;strokeColor=none;fillColor=#00BEF2;shape=mxgraph.azure.user;" vertex="1" parent="1">
          <mxGeometry x="50" y="198" width="47.5" height="50" as="geometry" />
        </mxCell>
        <mxCell id="o04J5xOrKGcNlXBaJA4S-3" value="users" style="text;html=1;align=center;verticalAlign=middle;resizable=0;points=[];autosize=1;strokeColor=none;fillColor=none;" vertex="1" parent="1">
          <mxGeometry x="47.5" y="260" width="50" height="30" as="geometry" />
        </mxCell>
        <mxCell id="o04J5xOrKGcNlXBaJA4S-4" value="" style="sketch=0;points=[[0,0,0],[0.25,0,0],[0.5,0,0],[0.75,0,0],[1,0,0],[0,1,0],[0.25,1,0],[0.5,1,0],[0.75,1,0],[1,1,0],[0,0.25,0],[0,0.5,0],[0,0.75,0],[1,0.25,0],[1,0.5,0],[1,0.75,0]];outlineConnect=0;fontColor=#232F3E;fillColor=#8C4FFF;strokeColor=#ffffff;dashed=0;verticalLabelPosition=bottom;verticalAlign=top;align=center;html=1;fontSize=12;fontStyle=0;aspect=fixed;shape=mxgraph.aws4.resourceIcon;resIcon=mxgraph.aws4.route_53;" vertex="1" parent="1">
          <mxGeometry x="260" y="190" width="66" height="66" as="geometry" />
        </mxCell>
        <mxCell id="o04J5xOrKGcNlXBaJA4S-5" style="edgeStyle=orthogonalEdgeStyle;rounded=0;orthogonalLoop=1;jettySize=auto;html=1;entryX=0;entryY=0.5;entryDx=0;entryDy=0;entryPerimeter=0;" edge="1" parent="1" source="o04J5xOrKGcNlXBaJA4S-2" target="o04J5xOrKGcNlXBaJA4S-4">
          <mxGeometry relative="1" as="geometry" />
        </mxCell>
        <mxCell id="o04J5xOrKGcNlXBaJA4S-6" value="Route53" style="text;html=1;strokeColor=none;fillColor=none;align=center;verticalAlign=middle;whiteSpace=wrap;rounded=0;" vertex="1" parent="1">
          <mxGeometry x="266" y="256" width="60" height="30" as="geometry" />
        </mxCell>
        <mxCell id="o04J5xOrKGcNlXBaJA4S-11" style="edgeStyle=orthogonalEdgeStyle;rounded=0;orthogonalLoop=1;jettySize=auto;html=1;" edge="1" parent="1" source="o04J5xOrKGcNlXBaJA4S-7" target="o04J5xOrKGcNlXBaJA4S-10">
          <mxGeometry relative="1" as="geometry" />
        </mxCell>
        <mxCell id="o04J5xOrKGcNlXBaJA4S-7" value="" style="sketch=0;points=[[0,0,0],[0.25,0,0],[0.5,0,0],[0.75,0,0],[1,0,0],[0,1,0],[0.25,1,0],[0.5,1,0],[0.75,1,0],[1,1,0],[0,0.25,0],[0,0.5,0],[0,0.75,0],[1,0.25,0],[1,0.5,0],[1,0.75,0]];outlineConnect=0;fontColor=#232F3E;fillColor=#DD344C;strokeColor=#ffffff;dashed=0;verticalLabelPosition=bottom;verticalAlign=top;align=center;html=1;fontSize=12;fontStyle=0;aspect=fixed;shape=mxgraph.aws4.resourceIcon;resIcon=mxgraph.aws4.waf;" vertex="1" parent="1">
          <mxGeometry x="414" y="194" width="58" height="58" as="geometry" />
        </mxCell>
        <mxCell id="o04J5xOrKGcNlXBaJA4S-8" style="edgeStyle=orthogonalEdgeStyle;rounded=0;orthogonalLoop=1;jettySize=auto;html=1;entryX=0;entryY=0.5;entryDx=0;entryDy=0;entryPerimeter=0;" edge="1" parent="1" source="o04J5xOrKGcNlXBaJA4S-4" target="o04J5xOrKGcNlXBaJA4S-7">
          <mxGeometry relative="1" as="geometry" />
        </mxCell>
        <mxCell id="o04J5xOrKGcNlXBaJA4S-9" value="WAF" style="text;html=1;strokeColor=none;fillColor=none;align=center;verticalAlign=middle;whiteSpace=wrap;rounded=0;" vertex="1" parent="1">
          <mxGeometry x="413" y="252" width="60" height="30" as="geometry" />
        </mxCell>
        <mxCell id="o04J5xOrKGcNlXBaJA4S-14" style="edgeStyle=orthogonalEdgeStyle;rounded=0;orthogonalLoop=1;jettySize=auto;html=1;" edge="1" parent="1" source="o04J5xOrKGcNlXBaJA4S-10" target="o04J5xOrKGcNlXBaJA4S-13">
          <mxGeometry relative="1" as="geometry" />
        </mxCell>
        <mxCell id="o04J5xOrKGcNlXBaJA4S-10" value="" style="sketch=0;points=[[0,0,0],[0.25,0,0],[0.5,0,0],[0.75,0,0],[1,0,0],[0,1,0],[0.25,1,0],[0.5,1,0],[0.75,1,0],[1,1,0],[0,0.25,0],[0,0.5,0],[0,0.75,0],[1,0.25,0],[1,0.5,0],[1,0.75,0]];outlineConnect=0;fontColor=#232F3E;fillColor=#8C4FFF;strokeColor=#ffffff;dashed=0;verticalLabelPosition=bottom;verticalAlign=top;align=center;html=1;fontSize=12;fontStyle=0;aspect=fixed;shape=mxgraph.aws4.resourceIcon;resIcon=mxgraph.aws4.cloudfront;" vertex="1" parent="1">
          <mxGeometry x="550" y="194" width="58" height="58" as="geometry" />
        </mxCell>
        <mxCell id="o04J5xOrKGcNlXBaJA4S-12" value="CloudFront" style="text;html=1;strokeColor=none;fillColor=none;align=center;verticalAlign=middle;whiteSpace=wrap;rounded=0;" vertex="1" parent="1">
          <mxGeometry x="550" y="252" width="60" height="30" as="geometry" />
        </mxCell>
        <mxCell id="o04J5xOrKGcNlXBaJA4S-13" value="" style="sketch=0;outlineConnect=0;fontColor=#232F3E;gradientColor=none;fillColor=#7AA116;strokeColor=none;dashed=0;verticalLabelPosition=bottom;verticalAlign=top;align=center;html=1;fontSize=12;fontStyle=0;aspect=fixed;pointerEvents=1;shape=mxgraph.aws4.bucket_with_objects;" vertex="1" parent="1">
          <mxGeometry x="690" y="190.8" width="62.69" height="65.2" as="geometry" />
        </mxCell>
        <mxCell id="o04J5xOrKGcNlXBaJA4S-15" value="S3" style="text;html=1;strokeColor=none;fillColor=none;align=center;verticalAlign=middle;whiteSpace=wrap;rounded=0;" vertex="1" parent="1">
          <mxGeometry x="692.69" y="252" width="60" height="30" as="geometry" />
        </mxCell>
        <mxCell id="o04J5xOrKGcNlXBaJA4S-16" value="" style="sketch=0;points=[[0,0,0],[0.25,0,0],[0.5,0,0],[0.75,0,0],[1,0,0],[0,1,0],[0.25,1,0],[0.5,1,0],[0.75,1,0],[1,1,0],[0,0.25,0],[0,0.5,0],[0,0.75,0],[1,0.25,0],[1,0.5,0],[1,0.75,0]];outlineConnect=0;fontColor=#232F3E;fillColor=#DD344C;strokeColor=#ffffff;dashed=0;verticalLabelPosition=bottom;verticalAlign=top;align=center;html=1;fontSize=12;fontStyle=0;aspect=fixed;shape=mxgraph.aws4.resourceIcon;resIcon=mxgraph.aws4.certificate_manager_3;" vertex="1" parent="1">
          <mxGeometry x="416" y="101" width="55" height="55" as="geometry" />
        </mxCell>
        <mxCell id="o04J5xOrKGcNlXBaJA4S-17" value="AWS Certificate Manager" style="text;html=1;strokeColor=none;fillColor=none;align=center;verticalAlign=middle;whiteSpace=wrap;rounded=0;" vertex="1" parent="1">
          <mxGeometry x="402" y="71" width="92" height="30" as="geometry" />
        </mxCell>
        <mxCell id="o04J5xOrKGcNlXBaJA4S-18" style="edgeStyle=orthogonalEdgeStyle;rounded=0;orthogonalLoop=1;jettySize=auto;html=1;entryX=0.5;entryY=1;entryDx=0;entryDy=0;entryPerimeter=0;" edge="1" parent="1" source="o04J5xOrKGcNlXBaJA4S-7" target="o04J5xOrKGcNlXBaJA4S-16">
          <mxGeometry relative="1" as="geometry" />
        </mxCell>
      </root>
    </mxGraphModel>
  </diagram>
</mxfile>
